<?xml version="1.0" encoding="utf-8"?>
<!-- Generator: Adobe Illustrator 16.0.4, SVG Export Plug-In . SVG Version: 6.00 Build 0)  -->
<!DOCTYPE svg PUBLIC "-//W3C//DTD SVG 1.1//EN" "http://www.w3.org/Graphics/SVG/1.1/DTD/svg11.dtd">
<svg xmlns="http://www.w3.org/2000/svg" xmlns:xlink="http://www.w3.org/1999/xlink" version="1.1" x="0px" y="0px" width="941.052px" height="304.485px" viewBox="0 0 941.052 304.485" enable-background="new 0 0 941.052 304.485" xml:space="preserve">
<g id="Ebene_2">
</g>
<g id="Ebene_1">
	<g>
		<g>
			<polygon fill="#FFFFFF" points="315.262,196.24 339.145,154.876 363.026,196.24    "/>
		</g>
		<g>
			<polygon fill="#FFFFFF" points="315.262,196.24 291.38,154.876 339.145,154.876    "/>
		</g>
		<g>
			<polygon fill="#FFFFFF" points="291.38,154.876 267.498,113.511 315.262,113.511    "/>
		</g>
		<g>
			<polygon fill="#FFFFFF" points="267.498,113.511 243.619,72.146 291.38,72.146    "/>
		</g>
		<g>
			<polygon fill="#FFFFFF" points="339.145,237.602 315.262,196.24 363.026,196.24    "/>
		</g>
		<g>
			<path fill="#FFFFFF" d="M445.631,91.093l-10.939-18.946l-23.882,41.364h20.124C434.471,105.19,439.49,97.61,445.631,91.093z"/>
		</g>
		<g>
			<polygon fill="#FFFFFF" points="291.384,154.876 315.262,113.511 339.145,154.876    "/>
		</g>
		<g>
			<polygon fill="#FFFFFF" points="267.502,113.511 291.38,72.146 315.262,113.511    "/>
		</g>
		<g>
			<polygon fill="#FFFFFF" points="410.81,113.511 386.928,72.146 434.692,72.146    "/>
		</g>
		<g>
			<polygon fill="#FFFFFF" points="386.928,154.876 363.046,113.511 410.806,113.511    "/>
		</g>
		<g>
			<polygon fill="#FFFFFF" points="363.026,196.24 339.145,154.876 386.909,154.876    "/>
		</g>
		<g>
			<polygon fill="#FFFFFF" points="339.148,154.876 363.03,113.511 386.912,154.876    "/>
		</g>
		<g>
			<polygon fill="#FFFFFF" points="363.05,113.511 386.928,72.146 410.81,113.511    "/>
		</g>
	</g>
	<g>
		<path fill="#FFFFFF" d="M23.789,127.517c0-21.678-0.677-40.307-1.355-55.549h44.71l2.371,23.033h0.677    c12.194-17.613,31.162-26.76,55.21-26.76c36.243,0,68.759,31.501,68.759,84.34c0,60.292-38.275,88.743-75.195,88.743    c-19.984,0-35.565-8.129-43.017-18.967h-0.678v82.307H23.789V127.517z M75.273,166.47c0,4.064,0.339,7.789,1.016,10.838    c3.387,13.888,15.242,24.388,30.146,24.388c22.355,0,35.565-18.63,35.565-46.743c0-26.419-11.855-46.403-34.888-46.403    c-14.564,0-27.436,10.839-30.823,26.081c-0.677,2.709-1.016,6.097-1.016,9.146V166.47z"/>
		<path fill="#FFFFFF" d="M258.348,25.902c0,14.226-10.839,25.743-27.775,25.743c-16.258,0-27.097-11.518-26.758-25.743    c-0.338-14.903,10.5-26.081,27.097-26.081C247.509-0.179,258.009,10.999,258.348,25.902z M205.169,237.6V71.968h51.484V237.6    H205.169z"/>
		<path fill="#FFFFFF" d="M521.182,202.711c-24.049,0-45.05-10.16-46.744-31.499h100.276c-0.212-3.195-0.329-6.403-0.329-9.62    c0-13.008,1.761-25.883,5.122-38.289c-7.661-30.201-29.184-55.062-70.521-55.062c-57.581,0-83.662,46.404-83.662,88.404    c0,51.823,32.178,84.341,88.404,84.341c22.355,0,43.018-3.387,59.953-10.162l-6.773-34.887    C553.02,200.34,538.795,202.711,521.182,202.711z M505.939,102.452c23.709,0,29.129,21,29.129,33.533H474.1    C475.454,122.098,484.262,102.452,505.939,102.452z"/>
		<path fill="#FFFFFF" d="M747.182,71.968c-2.371,26.081-4.742,72.824-4.742,108.051c0,18.628,6.436,23.37,15.582,22.692    l-3.049,35.904c-2.709,1.355-10.84,2.709-17.951,2.709c-19.309,0-31.162-10.16-35.904-30.145h-0.678    c-11.855,19.984-31.162,30.145-53.178,30.145c-38.275,0-69.098-32.178-69.098-82.983c0-55.889,37.936-90.1,75.193-90.1    c19.307,0,35.904,8.13,45.389,25.404h1.355c1.016-8.129,2.371-15.242,4.064-21.678H747.182z M661.486,200.68    c14.904,0,26.76-14.565,30.146-30.823c0.678-5.758,1.016-10.5,1.016-16.598c0-5.419,0-9.822-0.678-13.887    c-3.047-18.969-14.564-31.84-29.129-31.84c-19.984,0-32.516,22.018-32.516,48.098C630.326,181.372,643.197,200.68,661.486,200.68z    "/>
		<path fill="#FFFFFF" d="M919.513,184.421c0,21.679,0.678,39.29,1.355,53.179h-44.711l-2.371-23.371h-1.016    c-6.436,10.16-22.018,27.096-51.824,27.096c-33.533,0-58.258-21-58.258-72.146V71.968h51.822v89.082    c0,24.049,7.791,38.614,25.742,38.614c14.227,0,22.355-9.824,25.742-17.952c1.355-3.049,1.693-7.113,1.693-11.178V71.968h51.824    V184.421z"/>
	</g>
</g>
</svg>
