<?xml version="1.0" encoding="utf-8"?>
<!-- Generator: Adobe Illustrator 16.0.4, SVG Export Plug-In . SVG Version: 6.00 Build 0)  -->
<!DOCTYPE svg PUBLIC "-//W3C//DTD SVG 1.1//EN" "http://www.w3.org/Graphics/SVG/1.1/DTD/svg11.dtd">
<svg version="1.1" id="Ebene_1" xmlns="http://www.w3.org/2000/svg" xmlns:xlink="http://www.w3.org/1999/xlink" x="0px" y="0px"
	 width="386.477px" height="300px" viewBox="0 0 386.477 300" enable-background="new 0 0 386.477 300" xml:space="preserve">
<polygon fill="#9E005D" points="129.176,225 172.477,150 215.777,225 "/>
<polygon fill="#C1272D" points="129.302,225 86,150 172.604,150 "/>
<polygon fill="#F15A24" points="86.302,150 43,75 129.604,75 "/>
<polygon fill="#FBB03B" points="43.302,75 0,0 86.604,0 "/>
<polygon fill="#662D91" points="172.302,300 129,225 215.604,225 "/>
<polygon fill="#1B1464" points="301.176,75 344.477,0 387.777,75 "/>
<polygon fill="#ED1C24" points="86.176,150 129.477,75 172.777,150 "/>
<polygon fill="#FBB03B" points="43.176,75 86.477,0 129.777,75 "/>
<polygon fill="#2E3192" points="301.302,75 258,0 344.603,0 "/>
<polygon fill="#22B573" points="258.302,150 215,75 301.603,75 "/>
<polygon fill="#39B54A" points="215.302,225 172,150 258.603,150 "/>
<polygon fill="#009245" points="172.176,150 215.477,75 258.777,150 "/>
<polygon fill="#0071BC" points="215.176,75 258.477,0 301.777,75 "/>
</svg>
